<?xml version="1.0" standalone="no"?>
<!DOCTYPE svg PUBLIC "-//W3C//DTD SVG 20010904//EN"
 "http://www.w3.org/TR/2001/REC-SVG-20010904/DTD/svg10.dtd">
<svg version="1.0" xmlns="http://www.w3.org/2000/svg"
 width="16.000000pt" height="16.000000pt" viewBox="0 0 16.000000 16.000000"
 preserveAspectRatio="xMidYMid meet">
<metadata>
Created by potrace 1.11, written by Peter Selinger 2001-2013
</metadata>
<g transform="translate(0.000000,16.000000) scale(0.001333,-0.001333)"
fill="#000000" stroke="none">
<path d="M5580 11979 c-2117 -148 -3993 -1399 -4946 -3299 -537 -1071 -736
-2248 -583 -3460 81 -650 276 -1291 575 -1890 223 -446 458 -807 780 -1195
138 -167 561 -590 729 -729 1004 -835 2176 -1307 3465 -1396 186 -13 614 -13
800 0 1342 93 2577 609 3580 1497 269 238 604 600 819 887 1020 1359 1412
3071 1089 4756 -349 1826 -1566 3410 -3253 4235 -706 345 -1437 540 -2235 595
-167 11 -651 11 -820 -1z m811 -283 c13 -2 65 -7 114 -11 140 -10 442 -52 609
-86 831 -166 1615 -514 2291 -1016 306 -227 700 -594 928 -864 719 -852 1162
-1825 1316 -2894 69 -474 74 -996 16 -1495 -134 -1135 -594 -2188 -1335 -3055
-137 -160 -484 -505 -640 -637 -1272 -1072 -2884 -1530 -4545 -1292 -295 42
-630 123 -950 229 -848 281 -1593 742 -2230 1380 -355 356 -612 684 -865 1106
-442 735 -697 1519 -786 2409 -29 291 -19 836 22 1190 130 1129 593 2188 1334
3055 137 160 484 505 640 637 813 685 1788 1131 2812 1287 211 32 388 51 558
57 85 4 157 9 160 12 5 5 510 -6 551 -12z"/>
<path d="M5680 11149 c-608 -42 -1176 -178 -1724 -414 -116 -50 -362 -171
-463 -228 -33 -19 -76 -40 -95 -46 -18 -6 -57 -28 -85 -49 -29 -20 -119 -83
-200 -139 -755 -522 -1337 -1189 -1727 -1978 -243 -491 -391 -955 -476 -1485
-67 -421 -82 -968 -40 -1375 86 -815 368 -1596 826 -2291 311 -473 763 -951
1219 -1289 691 -514 1489 -845 2335 -970 419 -61 898 -68 1335 -19 494 55 992
188 1459 389 116 50 362 171 463 228 33 19 76 40 95 46 18 6 57 28 85 49 29
20 119 83 200 139 755 522 1337 1189 1727 1978 336 680 492 1295 537 2115 56
1038 -247 2126 -847 3036 -311 473 -763 951 -1219 1289 -691 514 -1489 845
-2335 970 -302 44 -782 64 -1070 44z m-1325 -1863 c97 -11 140 -17 175 -22 19
-4 42 -7 50 -8 8 -2 29 -6 45 -9 17 -4 41 -10 55 -13 14 -3 36 -7 50 -9 37 -4
74 -14 185 -51 333 -110 620 -281 919 -547 l39 -35 -28 -29 c-35 -37 -161
-203 -207 -273 -66 -101 -139 -238 -194 -361 -55 -121 -144 -376 -144 -409 0
-23 -20 -80 -28 -80 -4 0 -24 31 -45 68 -98 175 -269 341 -482 469 -73 44
-201 96 -290 119 -16 4 -34 8 -40 10 -20 5 -82 15 -116 18 -20 2 -40 5 -45 8
-12 7 -226 7 -238 0 -5 -3 -23 -6 -40 -7 -184 -15 -394 -93 -574 -212 -88 -58
-235 -202 -309 -301 -106 -142 -197 -352 -224 -520 -13 -77 -22 -330 -13 -352
4 -8 8 -26 9 -40 14 -120 31 -187 75 -296 65 -163 150 -295 270 -415 74 -75
193 -179 205 -179 4 0 21 -11 38 -24 103 -76 290 -146 492 -183 45 -9 302 -9
365 -1 54 7 63 9 125 23 269 61 558 258 730 498 22 31 43 56 48 57 4 0 6 -338
5 -751 -3 -656 -5 -753 -18 -760 -29 -15 -150 -69 -156 -69 -3 0 -20 -6 -37
-14 -67 -29 -206 -72 -262 -81 -22 -3 -60 -10 -85 -15 -25 -6 -57 -12 -73 -14
-15 -3 -35 -7 -45 -10 -81 -26 -443 -39 -642 -23 -108 9 -195 21 -195 27 0 1
-13 3 -30 6 -16 2 -75 15 -130 28 -369 87 -774 303 -1048 558 -34 32 -65 58
-68 58 -3 0 -42 42 -87 93 -44 50 -94 108 -111 127 -43 48 -177 247 -234 347
-119 208 -204 437 -258 693 -19 86 -25 122 -34 185 -1 11 -3 20 -4 20 -11 0
-21 457 -10 470 4 6 8 20 7 30 -1 18 4 69 17 165 5 42 30 151 52 235 142 532
457 996 898 1323 39 28 75 56 81 61 39 33 265 158 369 205 139 62 345 135 435
152 8 2 35 8 60 13 77 18 94 21 135 26 22 3 58 7 80 10 22 3 67 8 100 11 33 3
60 6 62 7 4 5 320 -2 368 -7z m3865 -10 c204 -33 521 -123 615 -173 11 -6 67
-34 125 -63 58 -28 123 -62 145 -75 22 -13 51 -30 65 -38 192 -113 483 -375
634 -572 144 -187 258 -383 335 -577 28 -70 51 -132 51 -138 0 -6 4 -18 10
-28 16 -28 63 -217 80 -317 34 -209 40 -274 40 -425 0 -99 -6 -205 -16 -265
-8 -55 -17 -116 -19 -135 -12 -90 -85 -360 -115 -425 -5 -11 -25 -60 -45 -109
-113 -279 -283 -523 -536 -772 -168 -164 -250 -228 -452 -351 -259 -157 -557
-266 -867 -316 -110 -18 -318 -37 -405 -37 -163 0 -473 41 -625 82 -41 11 -84
23 -95 25 -46 11 -296 106 -301 114 -3 5 -13 9 -22 9 -49 1 -47 -29 -42 773
l5 748 40 -53 c204 -275 461 -441 788 -509 128 -27 378 -26 508 1 171 36 327
99 451 182 289 194 464 449 544 793 25 111 26 376 0 490 -36 162 -70 250 -150
389 -82 145 -192 271 -316 365 -196 148 -384 226 -630 261 -125 18 -373 3
-471 -28 -19 -6 -63 -21 -99 -32 -90 -30 -212 -90 -305 -152 -112 -74 -267
-232 -346 -353 -63 -96 -129 -222 -129 -246 0 -6 -6 -25 -14 -42 -16 -37 -33
-99 -48 -171 -7 -33 -13 -469 -18 -1241 -6 -1152 -7 -1194 -28 -1307 -11 -64
-26 -136 -33 -160 -6 -23 -12 -50 -13 -58 -1 -8 -8 -35 -16 -60 -7 -25 -14
-47 -15 -50 -9 -42 -65 -190 -104 -279 -187 -422 -493 -786 -881 -1044 l-85
-57 -5 967 c-4 749 3 3208 9 3318 2 30 30 180 47 255 9 36 18 75 20 88 7 36
82 260 103 306 11 22 33 72 50 110 70 156 211 376 329 516 121 143 317 328
433 409 388 272 717 403 1154 461 50 6 97 13 105 15 41 10 474 -5 560 -19z
m-3000 -5780 l0 -753 -132 -56 c-145 -60 -300 -112 -363 -120 -22 -3 -51 -9
-65 -12 -14 -4 -34 -8 -45 -10 -11 -2 -36 -6 -55 -10 -72 -15 -179 -27 -225
-27 -16 1 -36 -5 -44 -11 -10 -9 -15 -9 -18 -1 -3 8 -16 9 -41 4 -48 -11 -147
-10 -195 0 -22 5 -40 4 -43 -2 -4 -5 -10 -5 -17 0 -7 6 -50 13 -97 16 -47 3
-96 8 -110 10 -14 3 -43 7 -65 11 -22 3 -51 8 -65 12 -14 3 -29 7 -35 8 -339
80 -633 212 -907 408 -96 69 -133 99 -266 216 -12 11 -22 24 -22 28 0 5 183
191 408 415 l407 408 41 -38 c134 -122 285 -210 454 -266 158 -52 240 -65 415
-66 116 0 138 1 215 15 157 28 322 86 394 139 17 13 38 25 46 28 74 26 313
246 384 352 20 31 39 56 42 56 2 0 4 -339 4 -754z"/>
</g>
</svg>
